<svg version="1.1" id="_x32_" xmlns="http://www.w3.org/2000/svg" xmlns:xlink="http://www.w3.org/1999/xlink" viewBox="0 0 512 512" xml:space="preserve" fill="currentColor" transform="rotate(180)">
<g id="SVGRepo_bgCarrier" stroke-width="0"></g>
<g id="SVGRepo_tracerCarrier" stroke-linecap="round" stroke-linejoin="round"></g>
<g id="SVGRepo_iconCarrier"> 
  <path fill="currentColor" d="M502.961,11.989l-2.953-2.938c-12.047-12.078-31.609-12.063-43.656,0L282.632,182.771 c-30.406,30.406-50.656,24.141-78.406,20.875c-34.453-4.047-58.766-3.031-107.359,45.938c0,0-56.109,56.094-87.844,87.828 c-26.516,26.516,11.25,66.125,38.375,38.984l92-91.984c5.875-5.875,15.406-5.875,21.281-0.016l2.828,2.844 c5.891,5.891,5.891,15.406,0,21.281l-92.406,92.422c-15.156,15.141-9.484,29.875,0.281,39.656 c9.781,9.797,24.531,15.469,39.688,0.297l92.406-92.406c5.875-5.875,15.406-5.875,21.281,0l2.828,2.828 c5.891,5.891,5.875,15.406,0,21.297l-91.984,91.984c-27.141,27.141,12.469,64.906,38.984,38.375 c31.75-31.734,87.844-87.828,87.844-87.828c48.953-48.594,49.969-72.906,45.906-107.375c-3.266-27.75-9.5-47.984,20.906-78.391 L502.961,55.661C515.008,43.599,515.008,24.052,502.961,11.989z">
  </path> 
</g> 
</svg>