<?xml version="1.0" standalone="no"?>
<!DOCTYPE svg PUBLIC "-//W3C//DTD SVG 20010904//EN"
 "http://www.w3.org/TR/2001/REC-SVG-20010904/DTD/svg10.dtd">
<svg version="1.0" xmlns="http://www.w3.org/2000/svg"
 width="600.000000pt" height="600.000000pt" viewBox="0 0 600.000000 600.000000"
 preserveAspectRatio="xMidYMid meet">
<metadata>
Created by potrace 1.14, written by Peter Selinger 2001-2017
</metadata>
<g transform="translate(0.000000,600.000000) scale(0.100000,-0.100000)"
fill="#000000" stroke="none">
<path d="M0 3000 l0 -3000 3000 0 3000 0 0 3000 0 3000 -3000 0 -3000 0 0
-3000z m5330 2771 c0 -15 -70 -112 -149 -206 -129 -153 -303 -338 -618 -656
-167 -168 -303 -313 -303 -321 0 -24 11 -48 21 -48 19 0 227 197 664 631 388
384 491 479 520 479 3 0 5 -9 5 -19 0 -27 -71 -120 -181 -236 -121 -128 -516
-557 -762 -829 -111 -122 -124 -140 -111 -153 13 -13 22 -9 77 40 34 30 278
267 542 527 442 435 543 530 567 530 17 0 7 -38 -22 -81 -16 -24 -82 -100
-146 -169 -245 -262 -834 -904 -878 -956 -22 -27 -24 -33 -10 -38 43 -16 63 0
377 311 407 401 662 632 802 726 49 33 55 33 55 3 0 -15 -24 -55 -62 -102 -35
-43 -74 -91 -88 -108 -471 -587 -871 -1000 -1122 -1160 -94 -60 -150 -76 -342
-102 -99 -13 -202 -31 -230 -41 -63 -22 -133 -91 -311 -303 -601 -720 -1139
-1312 -1759 -1933 -646 -649 -1252 -1187 -1335 -1187 -9 0 -50 33 -90 74 -85
86 -86 91 -22 185 172 250 1008 1135 1641 1734 482 457 766 711 1295 1157 328
277 384 329 414 387 27 53 35 94 61 288 22 171 42 231 111 332 142 208 485
549 904 899 157 131 369 303 408 332 31 22 77 30 77 13z"/>
</g>
</svg>
